<mxfile host="Electron" agent="Mozilla/5.0 (Windows NT 10.0; Win64; x64) AppleWebKit/537.36 (KHTML, like Gecko) draw.io/26.0.16 Chrome/132.0.6834.196 Electron/34.2.0 Safari/537.36" version="26.0.16">
  <diagram name="Страница — 1" id="p12fUWuBxTMcxibGSODB">
    <mxGraphModel dx="1400" dy="4128" grid="1" gridSize="10" guides="1" tooltips="1" connect="1" arrows="1" fold="1" page="1" pageScale="1" pageWidth="2339" pageHeight="3300" math="0" shadow="0">
      <root>
        <mxCell id="0" />
        <mxCell id="1" parent="0" />
        <mxCell id="RSq4G0n_Gv9xIA6ASCq_-1" value="&lt;font style=&quot;font-size: 14px;&quot;&gt;Н_ЛЮДИ&lt;/font&gt;" style="text;html=1;align=center;verticalAlign=middle;whiteSpace=wrap;rounded=0;" vertex="1" parent="1">
          <mxGeometry x="217" y="440" width="70" height="50" as="geometry" />
        </mxCell>
        <mxCell id="RSq4G0n_Gv9xIA6ASCq_-2" value="&lt;font style=&quot;font-size: 14px;&quot;&gt;Н_СЕССИЯ&lt;/font&gt;" style="text;html=1;align=center;verticalAlign=middle;whiteSpace=wrap;rounded=0;" vertex="1" parent="1">
          <mxGeometry x="477" y="440" width="70" height="50" as="geometry" />
        </mxCell>
        <mxCell id="RSq4G0n_Gv9xIA6ASCq_-3" value="&lt;font style=&quot;font-size: 20px;&quot;&gt;&lt;b&gt; ⋈&lt;/b&gt; &lt;/font&gt;&lt;font style=&quot;font-size: 14px;&quot;&gt;Н_ЛЮДИ.ИД = Н_СЕССИЯ.ЧЛВК_ИД&lt;/font&gt;" style="text;html=1;align=center;verticalAlign=middle;whiteSpace=wrap;rounded=0;" vertex="1" parent="1">
          <mxGeometry x="217" y="300" width="330" height="50" as="geometry" />
        </mxCell>
        <mxCell id="RSq4G0n_Gv9xIA6ASCq_-7" value="" style="endArrow=classic;html=1;rounded=0;exitX=0.5;exitY=0;exitDx=0;exitDy=0;entryX=0.25;entryY=1;entryDx=0;entryDy=0;" edge="1" parent="1" source="RSq4G0n_Gv9xIA6ASCq_-1" target="RSq4G0n_Gv9xIA6ASCq_-3">
          <mxGeometry width="50" height="50" relative="1" as="geometry">
            <mxPoint x="417" y="380" as="sourcePoint" />
            <mxPoint x="467" y="330" as="targetPoint" />
          </mxGeometry>
        </mxCell>
        <mxCell id="RSq4G0n_Gv9xIA6ASCq_-8" value="" style="endArrow=classic;html=1;rounded=0;exitX=0.5;exitY=0;exitDx=0;exitDy=0;entryX=0.75;entryY=1;entryDx=0;entryDy=0;" edge="1" parent="1" source="RSq4G0n_Gv9xIA6ASCq_-2" target="RSq4G0n_Gv9xIA6ASCq_-3">
          <mxGeometry width="50" height="50" relative="1" as="geometry">
            <mxPoint x="417" y="380" as="sourcePoint" />
            <mxPoint x="467" y="330" as="targetPoint" />
          </mxGeometry>
        </mxCell>
        <mxCell id="RSq4G0n_Gv9xIA6ASCq_-9" value="&lt;div&gt;&lt;font style=&quot;font-size: 20px;&quot;&gt;&lt;br&gt;&lt;/font&gt;&lt;/div&gt;&lt;font style=&quot;font-size: 20px;&quot;&gt;&lt;div&gt;&lt;font style=&quot;font-size: 20px;&quot;&gt;&lt;br&gt;&lt;/font&gt;&lt;/div&gt;σ&amp;nbsp;&lt;/font&gt;&lt;span style=&quot;line-height: 107%; font-family: &amp;quot;Segoe UI&amp;quot;, sans-serif; color: rgb(33, 37, 41);&quot;&gt;&lt;font&gt;Н_ЛЮДИ.ФАМИЛИЯ &amp;lt; Афанасьев ^&amp;nbsp;Н_СЕССИЯ.УЧГОД &amp;lt; 2006/2007&lt;/font&gt;&lt;br&gt;&lt;br&gt;&lt;br&gt;&lt;br&gt;&lt;/span&gt;" style="text;html=1;align=center;verticalAlign=middle;whiteSpace=wrap;rounded=0;" vertex="1" parent="1">
          <mxGeometry x="160" y="200" width="430" height="40" as="geometry" />
        </mxCell>
        <mxCell id="RSq4G0n_Gv9xIA6ASCq_-10" value="" style="endArrow=classic;html=1;rounded=0;exitX=0.479;exitY=0.044;exitDx=0;exitDy=0;exitPerimeter=0;entryX=0.5;entryY=1;entryDx=0;entryDy=0;" edge="1" parent="1" source="RSq4G0n_Gv9xIA6ASCq_-3" target="RSq4G0n_Gv9xIA6ASCq_-9">
          <mxGeometry width="50" height="50" relative="1" as="geometry">
            <mxPoint x="477" y="280" as="sourcePoint" />
            <mxPoint x="527" y="230" as="targetPoint" />
          </mxGeometry>
        </mxCell>
        <mxCell id="RSq4G0n_Gv9xIA6ASCq_-14" style="edgeStyle=orthogonalEdgeStyle;rounded=0;orthogonalLoop=1;jettySize=auto;html=1;entryX=0.5;entryY=1;entryDx=0;entryDy=0;" edge="1" parent="1" source="RSq4G0n_Gv9xIA6ASCq_-11" target="RSq4G0n_Gv9xIA6ASCq_-13">
          <mxGeometry relative="1" as="geometry" />
        </mxCell>
        <mxCell id="RSq4G0n_Gv9xIA6ASCq_-11" value="&lt;font style=&quot;forced-color-adjust: none; color: rgb(0, 0, 0); font-family: Helvetica; font-style: normal; font-variant-ligatures: normal; font-variant-caps: normal; font-weight: 400; letter-spacing: normal; orphans: 2; text-align: center; text-indent: 0px; text-transform: none; widows: 2; word-spacing: 0px; -webkit-text-stroke-width: 0px; white-space: normal; background-color: rgb(251, 251, 251); text-decoration-thickness: initial; text-decoration-style: initial; text-decoration-color: initial; font-size: 20px;&quot;&gt;π&amp;nbsp;&lt;/font&gt;&lt;span style=&quot;forced-color-adjust: none; font-size: 12px; font-style: normal; font-variant-ligatures: normal; font-variant-caps: normal; font-weight: 400; letter-spacing: normal; orphans: 2; text-align: center; text-indent: 0px; text-transform: none; widows: 2; word-spacing: 0px; -webkit-text-stroke-width: 0px; white-space: normal; background-color: rgb(251, 251, 251); text-decoration-thickness: initial; text-decoration-style: initial; text-decoration-color: initial; line-height: 12.84px; font-family: &amp;quot;Segoe UI&amp;quot;, sans-serif; color: rgb(33, 37, 41);&quot;&gt;&lt;span style=&quot;font-size: 12pt; line-height: 107%;&quot;&gt;Н_ЛЮДИ.ФАМИЛИЯ, Н_СЕССИЯ.ДАТА&lt;/span&gt;&lt;br style=&quot;forced-color-adjust: none;&quot;&gt;&lt;br style=&quot;forced-color-adjust: none;&quot;&gt;&lt;br style=&quot;forced-color-adjust: none;&quot;&gt;&lt;/span&gt;" style="text;whiteSpace=wrap;html=1;" vertex="1" parent="1">
          <mxGeometry x="216.5" y="100" width="317" height="40" as="geometry" />
        </mxCell>
        <mxCell id="RSq4G0n_Gv9xIA6ASCq_-12" value="" style="endArrow=classic;html=1;rounded=0;exitX=0.5;exitY=0;exitDx=0;exitDy=0;entryX=0.5;entryY=1;entryDx=0;entryDy=0;" edge="1" parent="1" source="RSq4G0n_Gv9xIA6ASCq_-9" target="RSq4G0n_Gv9xIA6ASCq_-11">
          <mxGeometry width="50" height="50" relative="1" as="geometry">
            <mxPoint x="477" y="280" as="sourcePoint" />
            <mxPoint x="527" y="230" as="targetPoint" />
          </mxGeometry>
        </mxCell>
        <mxCell id="RSq4G0n_Gv9xIA6ASCq_-13" value="&lt;font style=&quot;font-size: 14px;&quot;&gt;Результат&lt;/font&gt;" style="text;html=1;align=center;verticalAlign=middle;whiteSpace=wrap;rounded=0;" vertex="1" parent="1">
          <mxGeometry x="340" y="-20" width="70" height="50" as="geometry" />
        </mxCell>
        <mxCell id="RSq4G0n_Gv9xIA6ASCq_-25" value="&lt;font style=&quot;font-size: 14px;&quot;&gt;Н_ЛЮДИ&lt;/font&gt;" style="text;html=1;align=center;verticalAlign=middle;whiteSpace=wrap;rounded=0;" vertex="1" parent="1">
          <mxGeometry x="867" y="560" width="70" height="50" as="geometry" />
        </mxCell>
        <mxCell id="RSq4G0n_Gv9xIA6ASCq_-26" value="&lt;font style=&quot;font-size: 14px;&quot;&gt;Н_СЕССИЯ&lt;/font&gt;" style="text;html=1;align=center;verticalAlign=middle;whiteSpace=wrap;rounded=0;" vertex="1" parent="1">
          <mxGeometry x="1320.5" y="560" width="70" height="50" as="geometry" />
        </mxCell>
        <mxCell id="RSq4G0n_Gv9xIA6ASCq_-27" value="&lt;font style=&quot;font-size: 20px;&quot;&gt;&lt;b&gt; ⋈&lt;/b&gt; &lt;/font&gt;&lt;font style=&quot;font-size: 14px;&quot;&gt;Н_ЛЮДИ.ИД = Н_СЕССИЯ.ЧЛВК_ИД&lt;/font&gt;" style="text;html=1;align=center;verticalAlign=middle;whiteSpace=wrap;rounded=0;" vertex="1" parent="1">
          <mxGeometry x="953.5" y="160" width="330" height="50" as="geometry" />
        </mxCell>
        <mxCell id="RSq4G0n_Gv9xIA6ASCq_-32" style="edgeStyle=orthogonalEdgeStyle;rounded=0;orthogonalLoop=1;jettySize=auto;html=1;entryX=0.5;entryY=1;entryDx=0;entryDy=0;" edge="1" parent="1" source="RSq4G0n_Gv9xIA6ASCq_-33" target="RSq4G0n_Gv9xIA6ASCq_-35">
          <mxGeometry relative="1" as="geometry" />
        </mxCell>
        <mxCell id="RSq4G0n_Gv9xIA6ASCq_-33" value="&lt;font style=&quot;forced-color-adjust: none; color: rgb(0, 0, 0); font-family: Helvetica; font-style: normal; font-variant-ligatures: normal; font-variant-caps: normal; font-weight: 400; letter-spacing: normal; orphans: 2; text-align: center; text-indent: 0px; text-transform: none; widows: 2; word-spacing: 0px; -webkit-text-stroke-width: 0px; white-space: normal; background-color: rgb(251, 251, 251); text-decoration-thickness: initial; text-decoration-style: initial; text-decoration-color: initial; font-size: 20px;&quot;&gt;π&amp;nbsp;&lt;/font&gt;&lt;span style=&quot;forced-color-adjust: none; font-size: 12px; font-style: normal; font-variant-ligatures: normal; font-variant-caps: normal; font-weight: 400; letter-spacing: normal; orphans: 2; text-align: center; text-indent: 0px; text-transform: none; widows: 2; word-spacing: 0px; -webkit-text-stroke-width: 0px; white-space: normal; background-color: rgb(251, 251, 251); text-decoration-thickness: initial; text-decoration-style: initial; text-decoration-color: initial; line-height: 12.84px; font-family: &amp;quot;Segoe UI&amp;quot;, sans-serif; color: rgb(33, 37, 41);&quot;&gt;&lt;span style=&quot;font-size: 12pt; line-height: 107%;&quot;&gt;Н_ЛЮДИ.ФАМИЛИЯ, Н_СЕССИЯ.ДАТА&lt;/span&gt;&lt;br style=&quot;forced-color-adjust: none;&quot;&gt;&lt;br style=&quot;forced-color-adjust: none;&quot;&gt;&lt;br style=&quot;forced-color-adjust: none;&quot;&gt;&lt;/span&gt;" style="text;whiteSpace=wrap;html=1;" vertex="1" parent="1">
          <mxGeometry x="960" y="70" width="317" height="40" as="geometry" />
        </mxCell>
        <mxCell id="RSq4G0n_Gv9xIA6ASCq_-34" value="" style="endArrow=classic;html=1;rounded=0;exitX=0.5;exitY=0;exitDx=0;exitDy=0;entryX=0.5;entryY=1;entryDx=0;entryDy=0;" edge="1" parent="1" source="RSq4G0n_Gv9xIA6ASCq_-27" target="RSq4G0n_Gv9xIA6ASCq_-33">
          <mxGeometry width="50" height="50" relative="1" as="geometry">
            <mxPoint x="1118.5" y="30" as="sourcePoint" />
            <mxPoint x="1270.5" y="60" as="targetPoint" />
          </mxGeometry>
        </mxCell>
        <mxCell id="RSq4G0n_Gv9xIA6ASCq_-35" value="&lt;font style=&quot;font-size: 14px;&quot;&gt;Результат&lt;/font&gt;" style="text;html=1;align=center;verticalAlign=middle;whiteSpace=wrap;rounded=0;" vertex="1" parent="1">
          <mxGeometry x="1083.5" y="-30" width="70" height="50" as="geometry" />
        </mxCell>
        <mxCell id="RSq4G0n_Gv9xIA6ASCq_-36" value="&lt;div&gt;&lt;font style=&quot;font-size: 20px;&quot;&gt;&lt;br&gt;&lt;/font&gt;&lt;/div&gt;&lt;font style=&quot;font-size: 20px;&quot;&gt;&lt;div&gt;&lt;font style=&quot;font-size: 20px;&quot;&gt;&lt;br&gt;&lt;/font&gt;&lt;/div&gt;σ&amp;nbsp;&lt;/font&gt;&lt;span style=&quot;line-height: 107%; font-family: &amp;quot;Segoe UI&amp;quot;, sans-serif; color: rgb(33, 37, 41);&quot;&gt;&lt;font&gt;Н_ЛЮДИ.ФАМИЛИЯ &amp;lt; Афанасьев&lt;/font&gt;&lt;br&gt;&lt;br&gt;&lt;br&gt;&lt;br&gt;&lt;/span&gt;" style="text;html=1;align=center;verticalAlign=middle;whiteSpace=wrap;rounded=0;" vertex="1" parent="1">
          <mxGeometry x="777" y="440" width="250" height="40" as="geometry" />
        </mxCell>
        <mxCell id="RSq4G0n_Gv9xIA6ASCq_-37" value="&lt;div&gt;&lt;font style=&quot;font-size: 20px;&quot;&gt;&lt;br&gt;&lt;/font&gt;&lt;/div&gt;&lt;font style=&quot;font-size: 20px;&quot;&gt;&lt;div&gt;&lt;font style=&quot;font-size: 20px;&quot;&gt;&lt;br&gt;&lt;/font&gt;&lt;/div&gt;σ&amp;nbsp;&lt;/font&gt;&lt;span style=&quot;color: rgb(33, 37, 41); font-family: &amp;quot;Segoe UI&amp;quot;, sans-serif; background-color: transparent;&quot;&gt;Н_СЕССИЯ.УЧГОД &amp;lt; 2006/2007&lt;/span&gt;&lt;div&gt;&lt;span style=&quot;line-height: 107%; font-family: &amp;quot;Segoe UI&amp;quot;, sans-serif; color: rgb(33, 37, 41);&quot;&gt;&lt;br&gt;&lt;br&gt;&lt;br&gt;&lt;/span&gt;&lt;/div&gt;" style="text;html=1;align=center;verticalAlign=middle;whiteSpace=wrap;rounded=0;" vertex="1" parent="1">
          <mxGeometry x="1240.5" y="440" width="230" height="40" as="geometry" />
        </mxCell>
        <mxCell id="RSq4G0n_Gv9xIA6ASCq_-42" value="" style="endArrow=classic;html=1;rounded=0;exitX=0.5;exitY=0;exitDx=0;exitDy=0;entryX=0.5;entryY=1;entryDx=0;entryDy=0;" edge="1" parent="1" source="RSq4G0n_Gv9xIA6ASCq_-26" target="RSq4G0n_Gv9xIA6ASCq_-37">
          <mxGeometry width="50" height="50" relative="1" as="geometry">
            <mxPoint x="1193.5" y="410" as="sourcePoint" />
            <mxPoint x="1243.5" y="360" as="targetPoint" />
          </mxGeometry>
        </mxCell>
        <mxCell id="RSq4G0n_Gv9xIA6ASCq_-43" value="" style="endArrow=classic;html=1;rounded=0;exitX=0.5;exitY=0;exitDx=0;exitDy=0;entryX=0.5;entryY=1;entryDx=0;entryDy=0;" edge="1" parent="1" source="RSq4G0n_Gv9xIA6ASCq_-25" target="RSq4G0n_Gv9xIA6ASCq_-36">
          <mxGeometry width="50" height="50" relative="1" as="geometry">
            <mxPoint x="1000" y="410" as="sourcePoint" />
            <mxPoint x="1050" y="360" as="targetPoint" />
          </mxGeometry>
        </mxCell>
        <mxCell id="RSq4G0n_Gv9xIA6ASCq_-44" value="&lt;font style=&quot;forced-color-adjust: none; color: rgb(0, 0, 0); font-family: Helvetica; font-style: normal; font-variant-ligatures: normal; font-variant-caps: normal; font-weight: 400; letter-spacing: normal; orphans: 2; text-align: center; text-indent: 0px; text-transform: none; widows: 2; word-spacing: 0px; -webkit-text-stroke-width: 0px; white-space: normal; background-color: rgb(251, 251, 251); text-decoration-thickness: initial; text-decoration-style: initial; text-decoration-color: initial; font-size: 20px;&quot;&gt;π &lt;/font&gt;&lt;span style=&quot;forced-color-adjust: none; font-size: 12px; font-style: normal; font-variant-ligatures: normal; font-variant-caps: normal; font-weight: 400; letter-spacing: normal; orphans: 2; text-align: center; text-indent: 0px; text-transform: none; widows: 2; word-spacing: 0px; -webkit-text-stroke-width: 0px; white-space: normal; background-color: rgb(251, 251, 251); text-decoration-thickness: initial; text-decoration-style: initial; text-decoration-color: initial; line-height: 12.84px; font-family: &amp;quot;Segoe UI&amp;quot;, sans-serif; color: rgb(33, 37, 41);&quot;&gt;&lt;span style=&quot;font-size: 12pt; line-height: 107%;&quot;&gt;Н_ЛЮДИ.ИД, Н_ЛЮДИ.ФАМИЛИЯ&lt;/span&gt;&lt;br style=&quot;forced-color-adjust: none;&quot;&gt;&lt;br style=&quot;forced-color-adjust: none;&quot;&gt;&lt;br style=&quot;forced-color-adjust: none;&quot;&gt;&lt;/span&gt;" style="text;whiteSpace=wrap;html=1;" vertex="1" parent="1">
          <mxGeometry x="755.5" y="320" width="293" height="40" as="geometry" />
        </mxCell>
        <mxCell id="RSq4G0n_Gv9xIA6ASCq_-45" value="&lt;font style=&quot;forced-color-adjust: none; color: rgb(0, 0, 0); font-family: Helvetica; font-style: normal; font-variant-ligatures: normal; font-variant-caps: normal; font-weight: 400; letter-spacing: normal; orphans: 2; text-align: center; text-indent: 0px; text-transform: none; widows: 2; word-spacing: 0px; -webkit-text-stroke-width: 0px; white-space: normal; background-color: rgb(251, 251, 251); text-decoration-thickness: initial; text-decoration-style: initial; text-decoration-color: initial; font-size: 20px;&quot;&gt;π&amp;nbsp;&lt;/font&gt;&lt;span style=&quot;forced-color-adjust: none; font-size: 12px; font-style: normal; font-variant-ligatures: normal; font-variant-caps: normal; font-weight: 400; letter-spacing: normal; orphans: 2; text-align: center; text-indent: 0px; text-transform: none; widows: 2; word-spacing: 0px; -webkit-text-stroke-width: 0px; white-space: normal; background-color: rgb(251, 251, 251); text-decoration-thickness: initial; text-decoration-style: initial; text-decoration-color: initial; line-height: 12.84px; font-family: &amp;quot;Segoe UI&amp;quot;, sans-serif; color: rgb(33, 37, 41);&quot;&gt;&lt;span style=&quot;font-size: 12pt; line-height: 107%;&quot;&gt;Н_СЕССИЯ.ЧЛВК_ИД, Н_СЕССИЯ.ДАТА&lt;/span&gt;&lt;br style=&quot;forced-color-adjust: none;&quot;&gt;&lt;br style=&quot;forced-color-adjust: none;&quot;&gt;&lt;br style=&quot;forced-color-adjust: none;&quot;&gt;&lt;/span&gt;" style="text;whiteSpace=wrap;html=1;" vertex="1" parent="1">
          <mxGeometry x="1197" y="320" width="317" height="40" as="geometry" />
        </mxCell>
        <mxCell id="RSq4G0n_Gv9xIA6ASCq_-47" value="" style="endArrow=classic;html=1;rounded=0;exitX=0.5;exitY=0;exitDx=0;exitDy=0;entryX=0.5;entryY=1;entryDx=0;entryDy=0;" edge="1" parent="1" source="RSq4G0n_Gv9xIA6ASCq_-36" target="RSq4G0n_Gv9xIA6ASCq_-44">
          <mxGeometry width="50" height="50" relative="1" as="geometry">
            <mxPoint x="1170" y="520" as="sourcePoint" />
            <mxPoint x="1220" y="470" as="targetPoint" />
          </mxGeometry>
        </mxCell>
        <mxCell id="RSq4G0n_Gv9xIA6ASCq_-48" value="" style="endArrow=classic;html=1;rounded=0;exitX=0.5;exitY=0;exitDx=0;exitDy=0;entryX=0.5;entryY=1;entryDx=0;entryDy=0;" edge="1" parent="1" source="RSq4G0n_Gv9xIA6ASCq_-37" target="RSq4G0n_Gv9xIA6ASCq_-45">
          <mxGeometry width="50" height="50" relative="1" as="geometry">
            <mxPoint x="1170" y="520" as="sourcePoint" />
            <mxPoint x="1220" y="470" as="targetPoint" />
          </mxGeometry>
        </mxCell>
        <mxCell id="RSq4G0n_Gv9xIA6ASCq_-50" value="" style="endArrow=classic;html=1;rounded=0;exitX=0.5;exitY=0;exitDx=0;exitDy=0;entryX=0.25;entryY=1;entryDx=0;entryDy=0;" edge="1" parent="1" source="RSq4G0n_Gv9xIA6ASCq_-44" target="RSq4G0n_Gv9xIA6ASCq_-27">
          <mxGeometry width="50" height="50" relative="1" as="geometry">
            <mxPoint x="1160" y="120" as="sourcePoint" />
            <mxPoint x="1210" y="70" as="targetPoint" />
          </mxGeometry>
        </mxCell>
        <mxCell id="RSq4G0n_Gv9xIA6ASCq_-51" value="" style="endArrow=classic;html=1;rounded=0;exitX=0.5;exitY=0;exitDx=0;exitDy=0;entryX=0.75;entryY=1;entryDx=0;entryDy=0;" edge="1" parent="1" source="RSq4G0n_Gv9xIA6ASCq_-45" target="RSq4G0n_Gv9xIA6ASCq_-27">
          <mxGeometry width="50" height="50" relative="1" as="geometry">
            <mxPoint x="1160" y="120" as="sourcePoint" />
            <mxPoint x="1210" y="70" as="targetPoint" />
          </mxGeometry>
        </mxCell>
        <mxCell id="RSq4G0n_Gv9xIA6ASCq_-52" value="&lt;font style=&quot;font-size: 26px;&quot;&gt;&lt;b style=&quot;&quot;&gt;План 1&lt;/b&gt;&lt;/font&gt;" style="text;html=1;align=center;verticalAlign=middle;whiteSpace=wrap;rounded=0;" vertex="1" parent="1">
          <mxGeometry x="325" y="-90" width="100" height="30" as="geometry" />
        </mxCell>
        <mxCell id="RSq4G0n_Gv9xIA6ASCq_-53" value="&lt;font style=&quot;font-size: 26px;&quot;&gt;&lt;b style=&quot;&quot;&gt;План 2&lt;/b&gt;&lt;/font&gt;" style="text;html=1;align=center;verticalAlign=middle;whiteSpace=wrap;rounded=0;" vertex="1" parent="1">
          <mxGeometry x="1068.5" y="-90" width="100" height="30" as="geometry" />
        </mxCell>
      </root>
    </mxGraphModel>
  </diagram>
</mxfile>
